<svg role="img" aria-label="Bluesky" viewBox="0 0 24 24" xmlns="http://www.w3.org/2000/svg" fill="currentColor"><path d="M12 10.8c-1.087-2.114-4.046-6.053-6.798-7.995C2.566.944 1.561 1.266.902 1.565.139 1.908 0 3.08 0 3.768c0 .69.378 5.65.624 6.479.815 2.736 3.713 3.66 6.383 3.364.136-.02.275-.039.415-.056-.138.022-.276.04-.415.056-3.912.58-7.387 2.005-2.83 7.078 5.013 5.19 6.617-2.559 7.823-6.52 1.205 3.96 2.81 11.71 7.822 6.52 4.557-5.073 1.083-6.498-2.829-7.078-.139-.016-.277-.034-.415-.056.14.017.279.036.415.056 2.67.297 5.568-.628 6.383-3.364.246-.828.624-5.79.624-6.478 0-.69-.139-1.861-.902-2.206-.659-.298-1.664-.62-4.3 1.24C16.046 4.748 13.087 8.687 12 10.8z"/></svg>
