<svg role="img" aria-label="Mastodon" xmlns="http://www.w3.org/2000/svg" viewBox="0 0 24 24" fill="currentColor"><path d="M23.268 5.313c-.35-2.578-2.617-4.61-5.304-5.004C17.51.242 15.792 0 11.813 0h-.03c-3.98 0-4.835.242-7.688.309C3.815 1.03 1.081 2.583.731 5.313.406 7.86 0 12.862 0 15.355c0 2.555.406 7.494.731 10.042 1.045 8.187 8.327 6.429 8.327 6.429 2.387-.28 4.722-1.362 5.552-2.756h-2.422c-.506.69-1.676 1.362-3.575 1.362-4.275 0-5.119-3.213-5.119-3.213l-.018-1.331c.891.444 2.628.688 5.219.688 5.225 0 9.909-1.728 9.909-8.219 0-6.29-4.25-7.334-5.337-7.334zM19.1 15.355c0 1.525-1.119 2.669-2.534 2.669-1.415 0-2.534-1.144-2.534-2.669v-3.86c0-1.525-1.119-2.669-2.534-2.669-1.415 0-2.534 1.144-2.534 2.669v3.86c0 1.525-1.119 2.669-2.534 2.669-1.415 0-2.534-1.144-2.534-2.669V8.822c0-2.538 1.859-4.688 4.591-4.688 2.031 0 3.356.978 4.031 2.291.675-1.313 2-2.291 4.031-2.291 2.731 0 4.591 2.15 4.591 4.688v6.534z"/></svg>
