<svg role="img" aria-label="Matrix" xmlns="http://www.w3.org/2000/svg" viewBox="0 0 24 24" fill="currentColor"><path d="M.632.55v22.9h2.28v.4H.15V.15h2.762v.4H.632zm22.736 22.9V.55h-2.28v-.4h2.762v23.3h-2.762v-.4h2.28zM6.886 19.45c-.626 0-1.172-.252-1.628-.756-.456-.504-.68-1.27-.68-2.29V8.907h1.124v7.285c0 1.224.46 1.836 1.389 1.836.332 0 .628-.09.887-.272.26-.182.452-.44.577-.774.124-.332.186-.78.186-1.343V8.907h1.122v6.77c0 1.224.46 1.836 1.39 1.836.332 0 .628-.09.887-.272.26-.182.452-.44.577-.774.124-.332.186-.78.186-1.343V8.907h1.123v10.364h-1.08v-1.31c-.304.504-.67.882-1.096 1.132-.426.25-1.052.376-1.878.376-.61 0-1.132-.23-1.564-.69-.432-.46-.648-1.18-.648-2.157 0-.52.13-1.024.387-1.51.258-.488.572-.83 1.033-1.02.46-.19.936-.285 1.423-.285.37 0 .685.076.942.23.258.152.45.38.576.684v-.256c0-1.224-.46-1.836-1.388-1.836-.332 0-.628.09-.887.272-.26.182-.452.44-.577.774-.124.332-.186.78-.186 1.343v.274c-.304-.504-.67-.882-1.096-1.132-.426-.25-1.052-.376-1.878-.376z"/></svg>
